<?xml version="1.0" encoding="UTF-8"?>
<svg xmlns="http://www.w3.org/2000/svg" xmlns:xlink="http://www.w3.org/1999/xlink" width="393pt" height="56pt" viewBox="0 0 546 78" version="1.1">

<path style="fill:#efcf19; stroke:none;" d="M38 1C36.5996 4.01539 35.0038 6.8251 34 10L24 3C23.0435 7.01743 23.0005 10.8866 23 15C19.3589 13.8357 15.7451 12.7751 12 12C12.7751 15.7451 13.8357 19.3589 15 23C10.8866 23.0005 7.01744 23.0435 3 24L10 34C6.8251 35.0038 4.01539 36.5996 1 38L1 40C4.01539 41.4004 6.82511 42.9962 10 44L10 46L9 47C6.95831 46.1055 5.17225 45.4637 3 45C3.34814 48.8814 3.91275 51.1663 1 54C2.68401 57.3453 4.30163 58.4258 8 59C7.45295 57.125 6.89004 55.7447 6 54C8.86848 56.6212 10.9595 59.6954 13 63C9.94433 60.8001 7.75221 60.1186 4 60C5.92816 63.4984 8.12237 63.8746 12 64L12 65C10.2032 65 10.4785 65.0143 9 66L9 67C12.6225 68.6616 15.5121 69.2162 17 65C19.305 65.8157 22.1052 66.462 22.946 69.064C23.2504 70.0062 22.2551 71.3639 22 72C22.9725 73.2699 23.7301 74.0275 25 75C29.1081 71.7176 32.8123 68.332 36.5463 73.8634L38 77L40 77L41.4537 73.8634C45.1877 68.332 48.8919 71.7176 53 75L56 73L55 70C58.0196 71.4375 59.7536 71.8004 63 71C62.5279 69.5838 62.1863 69.1863 61 68C64.222 68.6083 66.0247 68.3758 69 67L69 66C67.5215 65.0143 67.7968 65 66 65L66 64C69.5237 63.8884 71.5157 63.54 74 61C70.1261 59.9763 68.2321 60.6812 65 63L69 56C69.9857 57.4785 70 57.2032 70 59C73.6984 58.4258 75.316 57.3453 77 54C74.0872 51.1663 74.6519 48.8814 75 45L68 46L68 44L77 40L77 38L68 34L75 24L63 23C64.1643 19.3589 65.2249 15.7451 66 12L55 14C54.533 10.3045 54.0309 6.73518 54 3L44 10C42.9962 6.8251 41.4004 4.0154 40 1L38 1M507 1C505.296 3.93184 503.939 6.73964 503 10C499.599 8.04548 496.583 5.59433 493 4C492.121 7.69402 492.003 11.2143 492 15L481 12C481.56 15.804 482.627 19.4118 484 23L472 24L479 34C475.77 34.9493 472.978 36.4402 470 38L470 40C472.978 41.5598 475.77 43.0507 479 44L472 54C475.735 54.0309 479.305 54.533 483 55C482.241 58.6796 481.306 62.248 481 66L492 63L493 74C496.583 72.4057 499.599 69.9545 503 68C503.949 71.2304 505.44 74.0219 507 77L509 77L513 68L523 75L524 64L535 66C534.437 62.1881 533.19 58.6572 532 55C535.786 54.9975 539.306 54.8795 543 54C541.406 50.4174 538.955 47.4014 537 44L546 40L546 38L537 34C538.955 30.5986 541.406 27.5826 543 24C539.3 23.313 535.763 23.0104 532 23L535 12C532.264 12.2382 527.858 14.0774 525.318 12.7878C522.17 11.1897 523.002 5.88037 523 3L513 10L509 1L507 1z"/>
<path style="fill:#a1abb5; stroke:none;" d="M116 3C114.49 5.29079 113.163 7.51815 112 10L103 5L101 15C97.6882 14.143 94.3923 13.4382 91 13C91.4382 16.3923 92.143 19.6882 93 23L83 25L88 34C85.5182 35.1634 83.2908 36.4902 81 38L81 40C83.2908 41.5098 85.5181 42.8366 88 44L88 46L87 47L82 45L83 53C86.8578 54.9982 88.7797 58.3321 91 62C88.2197 60.5097 86.1516 60.0891 83 60C84.7435 63.1679 86.435 63.7312 90 64C88.8137 65.1863 88.4721 65.5838 88 67C91.0275 67.8767 92.9725 67.8767 96 67C95.5279 65.5838 95.1863 65.1863 94 64C98.8647 65.9379 101.624 67.4041 101 73C105.562 72.6566 108.288 70.4942 112 68C113.163 70.4818 114.49 72.7092 116 75L118 75C119.51 72.7092 120.837 70.4818 122 68C125.712 70.4942 128.438 72.6566 133 73C132.488 68.4092 133.763 66.7231 138 65C140.094 68.2293 142.473 68.0051 146 67C145.232 65.6859 145.314 65.7679 144 65L144 64C147.565 63.7312 149.256 63.1679 151 60C147.848 60.0891 145.78 60.5097 143 62L146 57C149.781 59.4895 152.101 57.7681 154 54C151.313 54.2695 149.43 54.8182 147 56C148.45 54.3924 149.051 53.9357 151 53L152 45L147 47L146 46L146 44C148.482 42.8366 150.709 41.5098 153 40L153 38C150.709 36.4902 148.482 35.1634 146 34L151 25L141 23C141.857 19.6882 142.562 16.3923 143 13C139.542 13.2825 136.336 14.0623 133 15L131 5L122 10C120.837 7.51815 119.51 5.29078 118 3L116 3z"/>
<path style="fill:#cba37b; stroke:none;" d="M181 7C180.356 9.66962 179.732 13.2319 176.777 14.3071C174.742 15.0476 172.072 14.2547 170 14C170.255 16.0722 171.048 18.7418 170.307 20.777C169.232 23.7319 165.67 24.356 163 25C163.702 27.4914 165.231 30.3754 164.603 33C164.098 35.106 162.185 36.7444 162.197 39C162.211 41.6915 164.91 44.5977 166 47L161 46C161.501 49.7069 162.357 51.7854 166 53C166.176 54.8781 166.438 56.1995 167 58L168 58L167 54L168 54C169.001 55.9238 169.077 56.0985 171 57L171 58L171 59L169 59C170.09 61.0975 170.986 62.3476 173.059 63.642C175.317 65.0522 178.236 65.6996 179.508 68.2299C180.106 69.4208 179.302 70.9117 179 72C182.986 72.889 184.804 71.9389 186 68C188.92 68.8089 192.023 71.8023 195 71.8025C197.682 71.8026 200.607 69.0857 203 68C204.896 71.7588 206.857 72.9164 211 72C210.815 71.3336 210.093 69.8487 210.313 68.9722C211.079 65.914 214.382 65.0435 217 64C216.014 65.4785 216 65.2032 216 67C219.409 67.909 222.072 68.0502 222 64C225.207 63.5031 226.444 62.8496 228 60L222 60C223.182 57.5703 223.73 55.6873 224 53C227.643 51.7854 228.499 49.7069 229 46L224 47C225.09 44.5977 227.789 41.6915 227.803 39C227.815 36.7444 225.902 35.106 225.397 33C224.769 30.3754 226.298 27.4914 227 25C224.33 24.356 220.768 23.7319 219.693 20.777C218.952 18.7417 219.745 16.0722 220 14C216.922 14.0636 214.025 14.4379 211 15L209 7C206.509 7.70177 203.625 9.23135 201 8.60262C198.89 8.09715 197.258 6.19599 195 6.19599C192.742 6.19599 191.11 8.09715 189 8.60262C186.375 9.23136 183.491 7.70177 181 7z"/>
<path style="fill:#ababab; stroke:none;" d="M244 47L240 46C240.633 50.061 242.034 51.8505 246 53L246 54C243.267 54.293 240.738 54.2298 238 54C239.899 57.7681 242.219 59.4895 246 57C247.249 59.6154 248.546 61.376 251.019 63.0324C253.5 64.694 257.628 65.4947 258.546 68.6628C258.816 69.5922 258.194 71.1645 258 72C261.41 71.7374 262.901 71.3213 264 68C267.052 68.4599 270.012 70.812 273 70.8326C275.399 70.8491 277.254 68.7714 279.715 69.2824C282.728 69.9082 284.719 71.7532 288 72C287.724 70.7498 287.068 69.1074 287.633 67.8256C288.951 64.8409 294.489 63.7008 296.895 61.6096C299.097 59.6963 301.965 56.5998 300 54L300 53C303.966 51.8504 305.367 50.061 306 46L302 47C302.684 44.4495 304.831 41.6281 304.832 39C304.833 36.8157 303.2 35.0501 302.672 33C302.111 30.8218 302.938 28.4347 301.887 26.375L298.019 21.7917C296.956 19.976 297.121 17.4267 295.397 16.0231L290.208 13.9815L285.625 10.0625C283.546 8.93926 281.208 9.75697 279 9.24769C276.943 8.77317 275.168 7.16557 273 7.16821C270.815 7.17088 269.052 8.79993 267 9.32793C264.822 9.88853 262.435 9.06243 260.375 10.1127L255.792 13.9815C253.976 15.0435 251.427 14.8792 250.023 16.6026L247.981 21.7917C246.814 23.7881 244.493 24.9391 243.772 27.2091L243.328 33C242.8 35.05 241.167 36.8157 241.168 39C241.169 41.6281 243.316 44.4496 244 47z"/>
<path style="fill:#bfbfbf; stroke:none;" d="M351 8.78781L346 10.51C340.819 11.9295 334.658 13.4295 330.839 17.6481L328.181 22.0154C326.964 23.9984 325.402 25.7902 324.595 28C321.055 37.6963 322.718 47.6252 328.336 55.9961C329.577 57.846 330.563 59.835 332.274 61.3164C336.372 64.8652 340.981 66.115 346 67.49L352 69.3765C355.076 69.6574 359.917 68.5189 362.91 67.6867C365.398 66.9952 367.029 65.1121 369.085 63.679C370.741 62.5245 372.759 61.7937 374.161 60.3017L376.819 56.0741C377.984 54.3125 379.607 52.8153 380.405 50.8302L381.513 45C382.746 39.0306 382.685 33.0157 380.416 27.1698L377.051 21.9259L374.302 17.6983L369.086 14.321C367.326 13.0991 365.854 11.4041 363.83 10.5988L358 9.62654C355.616 9.17735 353.462 8.29063 351 8.78781z"/>
<path style="fill:#d3d3d3; stroke:none;" d="M422 9.52932C418.094 10.426 414.233 12.4481 411.004 14.7886C407.934 17.0132 405.459 19.7814 403.468 23C392.994 39.9371 402.098 63.9022 422 68.4707C426.039 69.3979 430.954 69.3455 435 68.4823C439.241 67.5773 443.48 65.7473 446.996 63.2106C450.056 61.0033 452.57 58.2264 454.521 55C458.554 48.3287 460.23 39.6664 458.471 32C454.835 16.1615 437.726 5.91943 422 9.52932z"/>
</svg>
